<svg width="24" height="25" viewBox="0 0 24 25" fill="none" xmlns="http://www.w3.org/2000/svg">
<path fill-rule="evenodd" clip-rule="evenodd" d="M12 15.5C13.6569 15.5 15 14.1569 15 12.5C15 10.8431 13.6569 9.5 12 9.5C10.3431 9.5 9 10.8431 9 12.5C9 14.1569 10.3431 15.5 12 15.5Z" stroke="white" stroke-linecap="round" stroke-linejoin="round"/>
<path fill-rule="evenodd" clip-rule="evenodd" d="M19.4 15.5C19.1277 16.1171 19.2583 16.8378 19.73 17.32L19.79 17.38C20.1656 17.7551 20.3766 18.2642 20.3766 18.795C20.3766 19.3258 20.1656 19.8349 19.79 20.21C19.4149 20.5856 18.9058 20.7966 18.375 20.7966C17.8442 20.7966 17.3351 20.5856 16.96 20.21L16.9 20.15C16.4178 19.6783 15.6971 19.5477 15.08 19.82C14.4755 20.0791 14.0826 20.6724 14.08 21.33V21.5C14.08 22.6046 13.1846 23.5 12.08 23.5C10.9754 23.5 10.08 22.6046 10.08 21.5V21.41C10.0642 20.7327 9.63587 20.1339 9 19.9C8.38291 19.6277 7.66219 19.7583 7.18 20.23L7.12 20.29C6.74486 20.6656 6.23582 20.8766 5.705 20.8766C5.17418 20.8766 4.66514 20.6656 4.29 20.29C3.91445 19.9149 3.70343 19.4058 3.70343 18.875C3.70343 18.3442 3.91445 17.8351 4.29 17.46L4.35 17.4C4.82167 16.9178 4.95235 16.1971 4.68 15.58C4.42093 14.9755 3.82764 14.5826 3.17 14.58H3C1.89543 14.58 1 13.6846 1 12.58C1 11.4754 1.89543 10.58 3 10.58H3.09C3.76733 10.5642 4.36613 10.1359 4.6 9.5C4.87235 8.88291 4.74167 8.16219 4.27 7.68L4.21 7.62C3.83445 7.24486 3.62343 6.73582 3.62343 6.205C3.62343 5.67418 3.83445 5.16514 4.21 4.79C4.58514 4.41445 5.09418 4.20343 5.625 4.20343C6.15582 4.20343 6.66486 4.41445 7.04 4.79L7.1 4.85C7.58219 5.32167 8.30291 5.45235 8.92 5.18H9C9.60447 4.92093 9.99738 4.32764 10 3.67V3.5C10 2.39543 10.8954 1.5 12 1.5C13.1046 1.5 14 2.39543 14 3.5V3.59C14.0026 4.24764 14.3955 4.84093 15 5.1C15.6171 5.37235 16.3378 5.24167 16.82 4.77L16.88 4.71C17.2551 4.33445 17.7642 4.12343 18.295 4.12343C18.8258 4.12343 19.3349 4.33445 19.71 4.71C20.0856 5.08514 20.2966 5.59418 20.2966 6.125C20.2966 6.65582 20.0856 7.16486 19.71 7.54L19.65 7.6C19.1783 8.08219 19.0477 8.80291 19.32 9.42V9.5C19.5791 10.1045 20.1724 10.4974 20.83 10.5H21C22.1046 10.5 23 11.3954 23 12.5C23 13.6046 22.1046 14.5 21 14.5H20.91C20.2524 14.5026 19.6591 14.8955 19.4 15.5Z" stroke="white" stroke-linecap="round" stroke-linejoin="round"/>
</svg>
